<svg width="232" height="233" viewBox="0 0 232 233" fill="none" xmlns="http://www.w3.org/2000/svg">
<g opacity="0.3">
<path fill-rule="evenodd" clip-rule="evenodd" d="M185.272 23.4968C194.18 30.162 202.097 38.0789 208.762 46.9868L185.272 23.4968ZM156.498 7.76224C164.986 10.9365 173.002 15.0774 180.412 20.0509L212.208 51.8469C217.181 59.2571 221.322 67.2729 224.496 75.7604L156.498 7.76224ZM230.537 99.1515C231.162 103.353 231.562 107.627 231.723 111.963L120.296 0.535471C124.632 0.697049 128.906 1.09676 133.107 1.72192L230.537 99.1515ZM115.902 0.453735C116.883 0.453735 117.861 0.46592 118.836 0.490147L231.769 113.422C231.793 114.397 231.805 115.375 231.805 116.356C231.805 119.19 231.703 121.999 231.503 124.782L107.477 0.755319C110.259 0.555413 113.069 0.453735 115.902 0.453735ZM229.388 140.017C228.815 142.777 228.145 145.501 227.38 148.185L84.0734 4.87883C86.7576 4.11389 89.4815 3.44329 92.2414 2.87082L229.388 140.017ZM74.2998 8.14419C77.1401 7.0515 80.0344 6.06743 82.9774 5.19705L227.062 149.281C226.191 152.224 225.207 155.119 224.115 157.959L74.2998 8.14419ZM134.783 1.98393C141.494 3.08335 148.01 4.75907 154.28 6.95859L225.3 77.9783C227.5 84.2484 229.175 90.7649 230.275 97.4753L134.783 1.98393ZM93.418 2.63316C97.5907 1.81284 101.844 1.21646 106.164 0.857052L231.402 126.094C231.042 130.415 230.446 134.668 229.626 138.841L93.418 2.63316ZM63.2798 13.0608C66.5284 11.4025 69.8657 9.89291 73.2825 8.54109L223.718 158.976C222.366 162.393 220.856 165.73 219.198 168.979L63.2798 13.0608ZM202.073 193.869C204.373 191.314 206.561 188.656 208.629 185.903L46.3562 23.6294C43.603 25.6976 40.945 27.8855 38.3898 30.1854L202.073 193.869ZM218.716 169.912C217.399 172.436 215.991 174.906 214.497 177.317L54.9417 17.7617C57.3527 16.2678 59.8226 14.8599 62.347 13.5422L218.716 169.912ZM209.233 185.092C210.886 182.851 212.461 180.548 213.953 178.187L54.0718 18.3061C51.7112 19.7978 49.4082 21.3724 47.1669 23.0259L209.233 185.092ZM195.638 200.473C197.627 198.587 199.549 196.632 201.4 194.61L37.6486 30.8584C35.6271 32.7096 33.6715 34.6316 31.7856 36.6204L195.638 200.473ZM194.909 201.158L31.1004 37.3493C29.2279 39.3583 27.4259 41.4339 25.6984 43.5721L188.687 206.56C190.825 204.833 192.9 203.031 194.909 201.158ZM187.901 207.189C185.188 209.343 182.377 211.377 179.474 213.284L18.9743 52.7847C20.8818 49.8822 22.9162 47.0705 25.0695 44.3575L187.901 207.189ZM161.6 222.902C158.155 224.381 154.625 225.698 151.019 226.844L5.41511 81.2401C6.5604 77.6334 7.87741 74.1032 9.35652 70.6591L161.6 222.902ZM162.585 222.473L9.78522 69.6736C10.9575 67.0127 12.2269 64.4042 13.589 61.8526L170.406 218.67C167.855 220.032 165.246 221.301 162.585 222.473ZM171.325 218.174L14.0847 60.9341C15.4416 58.4465 16.887 56.0142 18.4167 53.6413L178.617 213.842C176.245 215.372 173.812 216.817 171.325 218.174ZM129.59 231.459C125.101 231.987 120.534 232.259 115.902 232.259H115.868L5.0748e-06 116.391L0 116.356C0 111.725 0.271614 107.157 0.799781 102.668L129.59 231.459ZM130.85 231.304L0.9549 101.409C1.38618 98.0595 1.96047 94.7546 2.67143 91.5008L140.758 229.587C137.504 230.298 134.199 230.873 130.85 231.304ZM141.913 229.329L2.93014 90.3453C3.55231 87.6319 4.26973 84.9549 5.07868 82.3179L149.941 227.18C147.304 227.989 144.627 228.706 141.913 229.329ZM83.9012 227.784C75.0847 225.257 66.6985 221.712 58.878 217.283L14.9753 173.381C10.5471 165.56 7.00167 157.174 4.47431 148.357L83.9012 227.784ZM85.8577 228.327L3.93212 146.401C2.66613 141.671 1.69187 136.822 1.02981 131.874L100.385 231.229C95.4368 230.567 90.5876 229.593 85.8577 228.327ZM102.004 231.434L0.824733 130.255C0.336515 126.169 0.0608079 122.019 0.00898074 117.814L114.445 232.25C110.24 232.198 106.089 231.922 102.004 231.434ZM55.4351 215.255L17.004 176.824C26.5913 192.471 39.7878 205.667 55.4351 215.255Z" fill="#D9D9D9"/>
<path fill-rule="evenodd" clip-rule="evenodd" d="M185.272 23.4968C194.18 30.162 202.097 38.0789 208.762 46.9868L185.272 23.4968ZM156.498 7.76224C164.986 10.9365 173.002 15.0774 180.412 20.0509L212.208 51.8469C217.181 59.2571 221.322 67.2729 224.496 75.7604L156.498 7.76224ZM230.537 99.1515C231.162 103.353 231.562 107.627 231.723 111.963L120.296 0.535471C124.632 0.697049 128.906 1.09676 133.107 1.72192L230.537 99.1515ZM115.902 0.453735C116.883 0.453735 117.861 0.46592 118.836 0.490147L231.769 113.422C231.793 114.397 231.805 115.375 231.805 116.356C231.805 119.19 231.703 121.999 231.503 124.782L107.477 0.755319C110.259 0.555413 113.069 0.453735 115.902 0.453735ZM229.388 140.017C228.815 142.777 228.145 145.501 227.38 148.185L84.0734 4.87883C86.7576 4.11389 89.4815 3.44329 92.2414 2.87082L229.388 140.017ZM74.2998 8.14419C77.1401 7.0515 80.0344 6.06743 82.9774 5.19705L227.062 149.281C226.191 152.224 225.207 155.119 224.115 157.959L74.2998 8.14419ZM134.783 1.98393C141.494 3.08335 148.01 4.75907 154.28 6.95859L225.3 77.9783C227.5 84.2484 229.175 90.7649 230.275 97.4753L134.783 1.98393ZM93.418 2.63316C97.5907 1.81284 101.844 1.21646 106.164 0.857052L231.402 126.094C231.042 130.415 230.446 134.668 229.626 138.841L93.418 2.63316ZM63.2798 13.0608C66.5284 11.4025 69.8657 9.89291 73.2825 8.54109L223.718 158.976C222.366 162.393 220.856 165.73 219.198 168.979L63.2798 13.0608ZM202.073 193.869C204.373 191.314 206.561 188.656 208.629 185.903L46.3562 23.6294C43.603 25.6976 40.945 27.8855 38.3898 30.1854L202.073 193.869ZM218.716 169.912C217.399 172.436 215.991 174.906 214.497 177.317L54.9417 17.7617C57.3527 16.2678 59.8226 14.8599 62.347 13.5422L218.716 169.912ZM209.233 185.092C210.886 182.851 212.461 180.548 213.953 178.187L54.0718 18.3061C51.7112 19.7978 49.4082 21.3724 47.1669 23.0259L209.233 185.092ZM195.638 200.473C197.627 198.587 199.549 196.632 201.4 194.61L37.6486 30.8584C35.6271 32.7096 33.6715 34.6316 31.7856 36.6204L195.638 200.473ZM194.909 201.158L31.1004 37.3493C29.2279 39.3583 27.4259 41.4339 25.6984 43.5721L188.687 206.56C190.825 204.833 192.9 203.031 194.909 201.158ZM187.901 207.189C185.188 209.343 182.377 211.377 179.474 213.284L18.9743 52.7847C20.8818 49.8822 22.9162 47.0705 25.0695 44.3575L187.901 207.189ZM161.6 222.902C158.155 224.381 154.625 225.698 151.019 226.844L5.41511 81.2401C6.5604 77.6334 7.87741 74.1032 9.35652 70.6591L161.6 222.902ZM162.585 222.473L9.78522 69.6736C10.9575 67.0127 12.2269 64.4042 13.589 61.8526L170.406 218.67C167.855 220.032 165.246 221.301 162.585 222.473ZM171.325 218.174L14.0847 60.9341C15.4416 58.4465 16.887 56.0142 18.4167 53.6413L178.617 213.842C176.245 215.372 173.812 216.817 171.325 218.174ZM129.59 231.459C125.101 231.987 120.534 232.259 115.902 232.259H115.868L5.0748e-06 116.391L0 116.356C0 111.725 0.271614 107.157 0.799781 102.668L129.59 231.459ZM130.85 231.304L0.9549 101.409C1.38618 98.0595 1.96047 94.7546 2.67143 91.5008L140.758 229.587C137.504 230.298 134.199 230.873 130.85 231.304ZM141.913 229.329L2.93014 90.3453C3.55231 87.6319 4.26973 84.9549 5.07868 82.3179L149.941 227.18C147.304 227.989 144.627 228.706 141.913 229.329ZM83.9012 227.784C75.0847 225.257 66.6985 221.712 58.878 217.283L14.9753 173.381C10.5471 165.56 7.00167 157.174 4.47431 148.357L83.9012 227.784ZM85.8577 228.327L3.93212 146.401C2.66613 141.671 1.69187 136.822 1.02981 131.874L100.385 231.229C95.4368 230.567 90.5876 229.593 85.8577 228.327ZM102.004 231.434L0.824733 130.255C0.336515 126.169 0.0608079 122.019 0.00898074 117.814L114.445 232.25C110.24 232.198 106.089 231.922 102.004 231.434ZM55.4351 215.255L17.004 176.824C26.5913 192.471 39.7878 205.667 55.4351 215.255Z" fill="url(#paint0_linear_23_132)"/>
</g>
<defs>
<linearGradient id="paint0_linear_23_132" x1="66.1767" y1="10.3256" x2="213.524" y2="181.438" gradientUnits="userSpaceOnUse">
<stop stop-color="#DED95C"/>
<stop offset="0.566826" stop-color="#9D4FCC" stop-opacity="0.48"/>
<stop offset="1" stop-color="#EA7979"/>
</linearGradient>
</defs>
</svg>
